<?xml version="1.0" encoding="UTF-8" standalone="no"?>
<!-- Created with PhysiCell (http://PhysiCell.MathCancer.org/) -->
<svg 
 xmlns:dc="http://purl.org/dc/elements/1.1/" 
 xmlns:cc="http://creativecommons.org/ns#" 
 xmlns:rdf="http://www.w3.org/1999/02/22-rdf-syntax-ns#" 
 xmlns:svg="http://www.w3.org/2000/svg" 
 xmlns="http://www.w3.org/2000/svg" 
 version="1.1" 
 width="1440" 
 height="975" 
 id="svg2">
  <circle cx="32.5" cy="32.5" r="25" stroke-width="1" stroke="black" fill="grey"/>
  <circle cx="32.5" cy="32.5" r="12.5" stroke-width="1" stroke="grey" fill="grey"/>
  <text x="72.5" y="45.25"
   font-family="Arial" font-size="42.5" fill="black" >
   Acinar
  </text>
  <circle cx="32.5" cy="97.5" r="25" stroke-width="1" stroke="black" fill="red"/>
  <circle cx="32.5" cy="97.5" r="12.5" stroke-width="1" stroke="red" fill="red"/>
  <text x="72.5" y="110.25"
   font-family="Arial" font-size="42.5" fill="black" >
   B Cells
  </text>
  <circle cx="32.5" cy="162.5" r="25" stroke-width="1" stroke="black" fill="yellow"/>
  <circle cx="32.5" cy="162.5" r="12.5" stroke-width="1" stroke="yellow" fill="yellow"/>
  <text x="72.5" y="175.25"
   font-family="Arial" font-size="42.5" fill="black" >
   CFTR- Tumor Cells
  </text>
  <circle cx="32.5" cy="227.5" r="25" stroke-width="1" stroke="black" fill="green"/>
  <circle cx="32.5" cy="227.5" r="12.5" stroke-width="1" stroke="green" fill="green"/>
  <text x="72.5" y="240.25"
   font-family="Arial" font-size="42.5" fill="black" >
   CXCL9/10 Cells
  </text>
  <circle cx="32.5" cy="292.5" r="25" stroke-width="1" stroke="black" fill="blue"/>
  <circle cx="32.5" cy="292.5" r="12.5" stroke-width="1" stroke="blue" fill="blue"/>
  <text x="72.5" y="305.25"
   font-family="Arial" font-size="42.5" fill="black" >
   Ductal
  </text>
  <circle cx="32.5" cy="357.5" r="25" stroke-width="1" stroke="black" fill="magenta"/>
  <circle cx="32.5" cy="357.5" r="12.5" stroke-width="1" stroke="magenta" fill="magenta"/>
  <text x="72.5" y="370.25"
   font-family="Arial" font-size="42.5" fill="black" >
   Endocrine 1
  </text>
  <circle cx="32.5" cy="422.5" r="25" stroke-width="1" stroke="black" fill="orange"/>
  <circle cx="32.5" cy="422.5" r="12.5" stroke-width="1" stroke="orange" fill="orange"/>
  <text x="72.5" y="435.25"
   font-family="Arial" font-size="42.5" fill="black" >
   Endothelial
  </text>
  <circle cx="32.5" cy="487.5" r="25" stroke-width="1" stroke="black" fill="lime"/>
  <circle cx="32.5" cy="487.5" r="12.5" stroke-width="1" stroke="lime" fill="lime"/>
  <text x="72.5" y="500.25"
   font-family="Arial" font-size="42.5" fill="black" >
   Fibroblasts
  </text>
  <circle cx="32.5" cy="552.5" r="25" stroke-width="1" stroke="black" fill="cyan"/>
  <circle cx="32.5" cy="552.5" r="12.5" stroke-width="1" stroke="cyan" fill="cyan"/>
  <text x="72.5" y="565.25"
   font-family="Arial" font-size="42.5" fill="black" >
   Lymphatic Endothelial Cells
  </text>
  <circle cx="32.5" cy="617.5" r="25" stroke-width="1" stroke="black" fill="hotpink"/>
  <circle cx="32.5" cy="617.5" r="12.5" stroke-width="1" stroke="hotpink" fill="hotpink"/>
  <text x="72.5" y="630.25"
   font-family="Arial" font-size="42.5" fill="black" >
   Macrophages
  </text>
  <circle cx="32.5" cy="682.5" r="25" stroke-width="1" stroke="black" fill="peachpuff"/>
  <circle cx="32.5" cy="682.5" r="12.5" stroke-width="1" stroke="peachpuff" fill="peachpuff"/>
  <text x="72.5" y="695.25"
   font-family="Arial" font-size="42.5" fill="black" >
   Mast Cells
  </text>
  <circle cx="32.5" cy="747.5" r="25" stroke-width="1" stroke="black" fill="darkseagreen"/>
  <circle cx="32.5" cy="747.5" r="12.5" stroke-width="1" stroke="darkseagreen" fill="darkseagreen"/>
  <text x="72.5" y="760.25"
   font-family="Arial" font-size="42.5" fill="black" >
   Metaplastic Cells
  </text>
  <circle cx="32.5" cy="812.5" r="25" stroke-width="1" stroke="black" fill="lightskyblue"/>
  <circle cx="32.5" cy="812.5" r="12.5" stroke-width="1" stroke="lightskyblue" fill="lightskyblue"/>
  <text x="72.5" y="825.25"
   font-family="Arial" font-size="42.5" fill="black" >
   Smooth Muscle Cells
  </text>
  <circle cx="32.5" cy="877.5" r="25" stroke-width="1" stroke="black" fill="purple"/>
  <circle cx="32.5" cy="877.5" r="12.5" stroke-width="1" stroke="purple" fill="purple"/>
  <text x="72.5" y="890.25"
   font-family="Arial" font-size="42.5" fill="black" >
   T Cells
  </text>
  <circle cx="32.5" cy="942.5" r="25" stroke-width="1" stroke="black" fill="darkolivegreen"/>
  <circle cx="32.5" cy="942.5" r="12.5" stroke-width="1" stroke="darkolivegreen" fill="darkolivegreen"/>
  <text x="72.5" y="955.25"
   font-family="Arial" font-size="42.5" fill="black" >
   Tumor Cells
  </text>
</svg>
